<?xml version="1.0"?><svg width="640" height="480" xmlns="http://www.w3.org/2000/svg">
 <title>lotus</title>
 <metadata id="metadata2430">image/svg+xml</metadata>
 <g display="inline">
  <title>Layer 1</title>
  <path opacity="0.55" transform="rotate(-0.36958199739456177 343.2374877929698,191.65663146972454) " d="m339.613464,266.048096c44.382111,-44.245941 52.65155,-93.133133 38.836212,-148.782928c-26.996521,13.294464 -79.962921,66.885941 -76.355133,159.61676" id="path3269" stroke-miterlimit="4" stroke-width="0" stroke="#000000" fill-rule="evenodd" fill="#ff0000"/>
  <path opacity="0.55" transform="rotate(-0.36958199739456177 261.5865783691393,191.28941345215122) " d="m265.210632,265.680878c-44.382172,-44.245987 -52.651611,-93.133194 -38.836243,-148.782928c26.99646,13.294434 79.962921,66.885925 76.355133,159.61676" id="path2385" stroke-miterlimit="4" stroke-width="0" stroke="#000000" fill-rule="evenodd" fill="#ff0000"/>
  <path opacity="0.25" transform="rotate(-0.36958199739456177 223.5410766601615,208.34840393066597) " d="m278.595154,272.235687c-70.928391,-32.195572 -108.525925,-86.446869 -110.108154,-127.774567c32.740692,0.551666 111.40921,63.91272 114.947083,126.389069" id="path2387" stroke-miterlimit="4" stroke-width="0" stroke="#000000" fill-rule="evenodd" fill="#00007f"/>
  <path opacity="0.25" transform="rotate(-0.36958199739456177 379.81341552735006,211.6535949707088) " d="m326.403931,275.13446c68.809021,-31.990723 105.283173,-85.896881 106.819,-126.961731c-31.763306,0.548141 -108.080322,63.506165 -111.512451,125.585022" id="path3267" stroke-miterlimit="4" stroke-width="0" stroke="#000000" fill-rule="evenodd" fill="#00007f"/>
  <ellipse ry="5.618021" rx="134" id="svg_1" cy="282.016633" cx="300" opacity="0.25" stroke-width="0" stroke="#000000" fill="#00007f"/>
  <path opacity="0.7" transform="rotate(1.0237400531768799 302.9037170410156,182.30989074707182) " d="m300.012634,277.223572c-40.359039,-3.566589 -45.360718,-153.051605 0.505859,-189.827362c49.822876,34.434387 50.02533,187.417023 -0.505859,189.827362z" id="path2389" stroke-miterlimit="4" stroke-width="0" stroke="#000000" fill-rule="evenodd" fill="#00ffff"/>
  <path opacity="0.7" transform="rotate(-3.6352899074554443 220.1834411621107,238.71688842773443) " d="m301.372498,280.738708c-45.478195,-46.393021 -102.075623,-82.462952 -162.378113,-84.043625c37.798126,51.522491 40.382462,78.887375 162.888245,84.212326" id="path2383" stroke-miterlimit="4" stroke-width="0" stroke="#000000" fill-rule="evenodd" fill="#00ffff"/>
  <path opacity="0.7" transform="rotate(4.322500228881836 381.45373535156205,234.37767028808594) " d="m303.792664,281.047516c43.501984,-51.524521 97.640015,-91.584198 155.322113,-93.339691c-36.155579,57.22142 -38.627716,87.613159 -155.810059,93.5271" id="path3271" stroke-miterlimit="4" stroke-width="0" stroke="#000000" fill-rule="evenodd" fill="#00ffff"/>
 </g>
</svg>